<svg width="26" height="22" viewBox="0 0 26 22" fill="none" xmlns="http://www.w3.org/2000/svg">
<path d="M14.9495 21.1268C18.3397 21.7056 20.8892 21.0717 22.5981 19.225C24.2795 17.3783 25.1201 14.6496 25.1201 11.0389V0H14.9495V10.6254H20.2002C20.3655 11.8658 20.3242 12.982 20.0761 13.9743C19.8005 14.939 19.2906 15.6832 18.5464 16.2069C17.8022 16.7306 16.7962 16.9511 15.5283 16.8684L14.9495 21.1268Z" fill="#B7E966"/>
<path d="M0.000193596 21.1268C3.39041 21.7056 5.93996 21.0717 7.64885 19.225C9.33017 17.3783 10.1708 14.6496 10.1708 11.0389V0H0.000193596V10.6254H5.25089C5.41627 11.8658 5.37492 12.982 5.12686 13.9743C4.85123 14.939 4.34132 15.6832 3.59713 16.2069C2.85293 16.7306 1.8469 16.9511 0.579012 16.8684L0.000193596 21.1268Z" fill="#B7E966"/>
</svg>
