<svg width="26" height="22" viewBox="0 0 26 22" fill="none" xmlns="http://www.w3.org/2000/svg">
<path d="M10.1706 21.1268C6.78043 21.7056 4.23088 21.0717 2.52199 19.225C0.840663 17.3783 0 14.6496 0 11.0389V0H10.1706V10.6254H4.91995C4.75457 11.8658 4.79591 12.982 5.04398 13.9743C5.3196 14.939 5.82951 15.6832 6.57371 16.2069C7.3179 16.7306 8.32394 16.9511 9.59183 16.8684L10.1706 21.1268Z" fill="#B7E966"/>
<path d="M25.1199 21.1268C21.7296 21.7056 19.1801 21.0717 17.4712 19.225C15.7899 17.3783 14.9492 14.6496 14.9492 11.0389V0H25.1199V10.6254H19.8692C19.7038 11.8658 19.7451 12.982 19.9932 13.9743C20.2688 14.939 20.7787 15.6832 21.5229 16.2069C22.2671 16.7306 23.2732 16.9511 24.541 16.8684L25.1199 21.1268Z" fill="#B7E966"/>
</svg>
